{
    "asset" : {
        "generator" : "Khronos glTF Blender I/O v1.4.40",
        "version" : "2.0"
    },
    "scene" : 0,
    "scenes" : [
        {
            "name" : "Scene",
            "nodes" : [
                0,
                1,
                2,
                3
            ]
        }
    ],
    "nodes" : [
        {
            "mesh" : 0,
            "name" : "\u7334\u5934"
        },
        {
            "name" : "\u70b9\u5149",
            "translation" : [
                -4.411627292633057,
                4.305363655090332,
                4.473703861236572
            ]
        },
        {
            "name" : "\u70b9\u5149.001",
            "translation" : [
                3.4767823219299316,
                -0.7905058860778809,
                4.120537757873535
            ]
        },
        {
            "name" : "\u70b9\u5149.002",
            "rotation" : [
                -0.7140272259712219,
                0,
                0,
                0.7001179456710815
            ],
            "translation" : [
                0.013086259365081787,
                -0.1252719759941101,
                -8.34707260131836
            ]
        }
    ],
    "materials" : [
        {
            "doubleSided" : true,
            "name" : "\u6750\u8d28.002",
            "pbrMetallicRoughness" : {
                "baseColorTexture" : {
                    "index" : 0,
                    "texCoord" : 0
                },
                "metallicFactor" : 0,
                "roughnessFactor" : 0.5
            }
        }
    ],
    "meshes" : [
        {
            "name" : "\u7334\u5934",
            "primitives" : [
                {
                    "attributes" : {
                        "POSITION" : 0,
                        "NORMAL" : 1,
                        "TEXCOORD_0" : 2
                    },
                    "indices" : 3,
                    "material" : 0
                }
            ]
        }
    ],
    "textures" : [
        {
            "sampler" : 0,
            "source" : 0
        }
    ],
    "images" : [
        {
            "bufferView" : 4,
            "mimeType" : "image/jpeg",
            "name" : "u=17528656,1453766029&fm=26&gp=0"
        }
    ],
    "accessors" : [
        {
            "bufferView" : 0,
            "componentType" : 5126,
            "count" : 8029,
            "max" : [
                1.3671875,
                0.984375,
                0.8515625
            ],
            "min" : [
                -1.3671875,
                -0.984375,
                -0.8515625
            ],
            "type" : "VEC3"
        },
        {
            "bufferView" : 1,
            "componentType" : 5126,
            "count" : 8029,
            "type" : "VEC3"
        },
        {
            "bufferView" : 2,
            "componentType" : 5126,
            "count" : 8029,
            "type" : "VEC2"
        },
        {
            "bufferView" : 3,
            "componentType" : 5123,
            "count" : 46464,
            "type" : "SCALAR"
        }
    ],
    "bufferViews" : [
        {
            "buffer" : 0,
            "byteLength" : 96348,
            "byteOffset" : 0
        },
        {
            "buffer" : 0,
            "byteLength" : 96348,
            "byteOffset" : 96348
        },
        {
            "buffer" : 0,
            "byteLength" : 64232,
            "byteOffset" : 192696
        },
        {
            "buffer" : 0,
            "byteLength" : 92928,
            "byteOffset" : 256928
        },
        {
            "buffer" : 0,
            "byteLength" : 36005,
            "byteOffset" : 349856
        }
    ],
    "samplers" : [
        {
            "magFilter" : 9729,
            "minFilter" : 9986
        }
    ],
    "buffers" : [
        {
            "byteLength" : 385864,
            "uri" : "data:application/octet-stream;base64,"
        }
    ]
}
